<?xml version="1.0" encoding="UTF-8" ?>
<!DOCTYPE svg PUBLIC "-//W3C//DTD SVG 1.1//EN"
        "http://www.w3.org/Graphics/SVG/1.1/DTD/svg11.dtd">
<svg xmlns="http://www.w3.org/2000/svg" version="1.1" viewBox="0 0 920 480" width="920" height="480">

    <defs>
        <filter id="shadow1">
            <feGaussianBlur in="SourceGraphic" stdDeviation="5"></feGaussianBlur>
        </filter>
    </defs>

    <path d="M10 240L10 220L90 35L110 20L350 20L370 40L550 40L570 20L810 20L830 35L910 220L910 260L830 445L810 460L570 460L550 440L370 440L350 460L110 460L90 445L10 260Z" stroke="#3EABBE" stroke-width="5" fill="none" style="" filter="url(#shadow1)"></path>
    <path d="M10 240L10 220L90 35L110 20L350 20L370 40L550 40L570 20L810 20L830 35L910 220L910 260L830 445L810 460L570 460L550 440L370 440L350 460L110 460L90 445L10 260Z" stroke="#3EABBE" stroke-width="1" fill="none" style=""></path>
    <path d="M20 240L900 240" stroke="#3EABBE" stroke-width="1" fill="none" style="" stroke-opacity="0.75"></path>
    <path d="M375 45L545 45L460 240L375 45" stroke="#3EABBE" stroke-width="1" fill="none" style="" stroke-opacity="0.75"></path>
    <path d="M265 240L350 460Z" stroke="#3EABBE" stroke-width="1" fill="none" style="" stroke-opacity="0.75"></path>
    <path d="M655 240L570 460Z" stroke="#3EABBE" stroke-width="1" fill="none" style="" stroke-opacity="0.75"></path>


    <text x="120" y="110" fill="#3EABBE" style="font-size: 40;font-weight: bold">业务</text>
    <text x="215" y="110" fill="#3EABBE" style="font-size: 22;font-weight: bold">稽核点总数</text>

    <text x="580" y="110" fill="#3EABBE" style="font-size: 40;font-weight: bold">资金</text>
    <text x="675" y="110" fill="#3EABBE" style="font-size: 22;font-weight: bold">稽核点总数</text>

    <text x="115" y="305" fill="#3EABBE" style="font-size: 40;font-weight: bold">异动</text>
    <text x="115" y="340" fill="#3EABBE" style="font-size: 22;font-weight: bold">稽核点总数</text>

    <text x="420" y="305" fill="#3EABBE" style="font-size: 40;font-weight: bold">付现</text>
    <text x="420" y="340" fill="#3EABBE" style="font-size: 22;font-weight: bold">稽核点总数</text>

    <text x="675" y="305" fill="#3EABBE" style="font-size: 40;font-weight: bold">实物</text>
    <text x="675" y="340" fill="#3EABBE" style="font-size: 22;font-weight: bold">稽核点总数</text>
</svg>